<svg width="16" height="26" viewBox="0 0 16 26" fill="none" xmlns="http://www.w3.org/2000/svg">
<path d="M15.1483 11.9581C15.3157 12.1255 15.3994 12.3181 15.3994 12.5357C15.3994 12.7533 15.3157 12.9459 15.1483 13.1133L3.44632 24.8153C3.2789 24.9827 3.08638 25.0664 2.86875 25.0664C2.65111 25.0664 2.45859 24.9827 2.29118 24.8153L1.0356 23.5597C0.86819 23.3923 0.784485 23.1998 0.784485 22.9821C0.784485 22.7645 0.86819 22.572 1.0356 22.4046L10.9045 12.5357L1.0356 2.66684C0.86819 2.49943 0.784485 2.3069 0.784485 2.08927C0.784485 1.87163 0.86819 1.67911 1.0356 1.5117L2.29118 0.256121C2.45859 0.0887102 2.65111 0.00500488 2.86875 0.00500488C3.08638 0.00500488 3.2789 0.0887102 3.44632 0.256121L15.1483 11.9581Z" fill="#959595"/>
</svg>
