<svg width="16" height="26" viewBox="0 0 16 26" fill="none" xmlns="http://www.w3.org/2000/svg">
<path d="M14.9519 1.5117C15.1193 1.67911 15.203 1.87163 15.203 2.08927C15.203 2.3069 15.1193 2.49943 14.9519 2.66684L5.08302 12.5357L14.9519 22.4046C15.1193 22.572 15.203 22.7645 15.203 22.9821C15.203 23.1998 15.1193 23.3923 14.9519 23.5597L13.6963 24.8153C13.5289 24.9827 13.3364 25.0664 13.1187 25.0664C12.9011 25.0664 12.7086 24.9827 12.5412 24.8153L0.839159 13.1133C0.671749 12.9459 0.588043 12.7533 0.588043 12.5357C0.588043 12.3181 0.671749 12.1255 0.839159 11.9581L12.5412 0.256121C12.7086 0.0887102 12.9011 0.00500488 13.1187 0.00500488C13.3364 0.00500488 13.5289 0.0887102 13.6963 0.256121L14.9519 1.5117Z" fill="#959595"/>
</svg>
