<svg width="23" height="26" viewBox="0 0 23 26" fill="none" xmlns="http://www.w3.org/2000/svg">
<path d="M11.1211 20.0586C10.7487 20.3971 10.3763 20.3971 10.0039 20.0586L6.75391 16.8086C6.41536 16.4362 6.41536 16.0638 6.75391 15.6914C7.1263 15.3529 7.4987 15.3529 7.87109 15.6914L10.5625 18.332L15.6914 13.2539C16.0638 12.9154 16.4362 12.9154 16.8086 13.2539C17.1471 13.6263 17.1471 13.9987 16.8086 14.3711L11.1211 20.0586ZM6.5 3.25H16.25V0.8125C16.2839 0.304688 16.5547 0.0338542 17.0625 0C17.5703 0.0338542 17.8411 0.304688 17.875 0.8125V3.25H19.5C20.4141 3.28385 21.1758 3.60547 21.7852 4.21484C22.3945 4.82422 22.7161 5.58594 22.75 6.5V22.75C22.7161 23.6641 22.3945 24.4258 21.7852 25.0352C21.1758 25.6445 20.4141 25.9661 19.5 26H3.25C2.33594 25.9661 1.57422 25.6445 0.964844 25.0352C0.355469 24.4258 0.0338542 23.6641 0 22.75V6.5C0.0338542 5.58594 0.355469 4.82422 0.964844 4.21484C1.57422 3.60547 2.33594 3.28385 3.25 3.25H4.875V0.8125C4.90885 0.304688 5.17969 0.0338542 5.6875 0C6.19531 0.0338542 6.46615 0.304688 6.5 0.8125V3.25ZM1.625 22.75C1.625 23.224 1.77734 23.6133 2.08203 23.918C2.38672 24.2227 2.77604 24.375 3.25 24.375H19.5C19.974 24.375 20.3633 24.2227 20.668 23.918C20.9727 23.6133 21.125 23.224 21.125 22.75V9.75H1.625V22.75ZM1.625 6.5V8.125H21.125V6.5C21.125 6.02604 20.9727 5.63672 20.668 5.33203C20.3633 5.02734 19.974 4.875 19.5 4.875H3.25C2.77604 4.875 2.38672 5.02734 2.08203 5.33203C1.77734 5.63672 1.625 6.02604 1.625 6.5Z" fill="white"/>
</svg>
