<svg width="7" height="8" viewBox="0 0 7 8" fill="none" xmlns="http://www.w3.org/2000/svg">
<path d="M3.55796 5.96282L5.54481 3.97596C5.60025 3.92053 5.62796 3.85489 5.62796 3.77903C5.62796 3.70317 5.60025 3.63753 5.54481 3.58209L5.09843 3.13571C5.04299 3.08028 4.97735 3.05256 4.90149 3.05256C4.82563 3.05256 4.75999 3.08028 4.70456 3.13571L3.36102 4.47924L2.01749 3.13571C1.96206 3.08028 1.89641 3.05256 1.82055 3.05256C1.7447 3.05256 1.67905 3.08028 1.62362 3.13571L1.17723 3.58209C1.1218 3.63753 1.09408 3.70317 1.09408 3.77903C1.09408 3.85489 1.1218 3.92053 1.17723 3.97596L3.16409 5.96282C3.21952 6.01825 3.28517 6.04597 3.36102 6.04597C3.43688 6.04597 3.50252 6.01825 3.55796 5.96282ZM6.27128 2.51427C6.57179 3.02776 6.72205 3.58939 6.72205 4.19916C6.72205 4.80893 6.57179 5.37201 6.27128 5.88842C5.97078 6.40191 5.56232 6.80891 5.04591 7.10942C4.53242 7.40993 3.97079 7.56018 3.36102 7.56018C2.75125 7.56018 2.18817 7.40993 1.67176 7.10942C1.15827 6.80891 0.75127 6.40191 0.450762 5.88842C0.150254 5.37201 0 4.80893 0 4.19916C0 3.58939 0.150254 3.02776 0.450762 2.51427C0.75127 1.99786 1.15827 1.58941 1.67176 1.2889C2.18817 0.988389 2.75125 0.838135 3.36102 0.838135C3.97079 0.838135 4.53242 0.988389 5.04591 1.2889C5.56232 1.58941 5.97078 1.99786 6.27128 2.51427Z" fill="#FFA3A6"/>
</svg>
