<svg width="20" height="26" viewBox="0 0 20 26" fill="none" xmlns="http://www.w3.org/2000/svg">
<path d="M13.8125 9.75C13.7786 10.901 13.3893 11.8659 12.6445 12.6445C11.8659 13.3893 10.901 13.7786 9.75 13.8125C8.59896 13.7786 7.63411 13.3893 6.85547 12.6445C6.11068 11.8659 5.72135 10.901 5.6875 9.75C5.72135 8.59896 6.11068 7.63411 6.85547 6.85547C7.63411 6.11068 8.59896 5.72135 9.75 5.6875C10.901 5.72135 11.8659 6.11068 12.6445 6.85547C13.3893 7.63411 13.7786 8.59896 13.8125 9.75ZM9.75 12.1875C10.4271 12.1536 11.0026 11.9167 11.4766 11.4766C11.9167 11.0026 12.1536 10.4271 12.1875 9.75C12.1536 9.07292 11.9167 8.4974 11.4766 8.02344C11.0026 7.58333 10.4271 7.34635 9.75 7.3125C9.07292 7.34635 8.4974 7.58333 8.02344 8.02344C7.58333 8.4974 7.34635 9.07292 7.3125 9.75C7.34635 10.4271 7.58333 11.0026 8.02344 11.4766C8.4974 11.9167 9.07292 12.1536 9.75 12.1875ZM19.5 9.75C19.4323 11.2734 18.8906 13.0339 17.875 15.0312C16.8255 17.0286 15.6406 18.9583 14.3203 20.8203C13 22.7161 11.8828 24.2227 10.9688 25.3398C10.6302 25.7461 10.224 25.9492 9.75 25.9492C9.27604 25.9492 8.86979 25.7461 8.53125 25.3398C7.61719 24.2227 6.48307 22.7161 5.12891 20.8203C3.80859 18.9583 2.64062 17.0286 1.625 15.0312C0.609375 13.0339 0.0677083 11.2734 0 9.75C0.0677083 6.97396 1.01562 4.67188 2.84375 2.84375C4.67188 1.01562 6.97396 0.0677083 9.75 0C12.526 0.0677083 14.8281 1.01562 16.6562 2.84375C18.4844 4.67188 19.4323 6.97396 19.5 9.75ZM9.75 1.625C7.44792 1.69271 5.53516 2.48828 4.01172 4.01172C2.48828 5.53516 1.69271 7.44792 1.625 9.75C1.625 10.5625 1.91276 11.6289 2.48828 12.9492C3.0638 14.3034 3.79167 15.7083 4.67188 17.1641C5.55208 18.5859 6.44922 19.9062 7.36328 21.125C8.27734 22.3776 9.07292 23.4271 9.75 24.2734C10.4271 23.4271 11.2227 22.3776 12.1367 21.125C13.0508 19.9062 13.9479 18.5859 14.8281 17.1641C15.7083 15.7083 16.4362 14.3034 17.0117 12.9492C17.5872 11.6289 17.875 10.5625 17.875 9.75C17.8073 7.44792 17.0117 5.53516 15.4883 4.01172C13.9648 2.48828 12.0521 1.69271 9.75 1.625Z" fill="white"/>
</svg>
