<svg width="7" height="8" viewBox="0 0 7 8" fill="none" xmlns="http://www.w3.org/2000/svg">
<path d="M5.09843 5.26261L5.54481 4.81622C5.60025 4.76079 5.62796 4.69514 5.62796 4.61929C5.62796 4.54343 5.60025 4.47778 5.54481 4.42235L3.55796 2.4355C3.50252 2.38006 3.43688 2.35235 3.36102 2.35235C3.28517 2.35235 3.21952 2.38006 3.16409 2.4355L1.17723 4.42235C1.1218 4.47778 1.09408 4.54343 1.09408 4.61929C1.09408 4.69514 1.1218 4.76079 1.17723 4.81622L1.62362 5.26261C1.67905 5.31804 1.7447 5.34576 1.82055 5.34576C1.89641 5.34576 1.96206 5.31804 2.01749 5.26261L3.36102 3.91907L4.70456 5.26261C4.75999 5.31804 4.82563 5.34576 4.90149 5.34576C4.97735 5.34576 5.04299 5.31804 5.09843 5.26261ZM6.27128 2.51427C6.57179 3.02776 6.72205 3.58939 6.72205 4.19916C6.72205 4.80893 6.57179 5.37201 6.27128 5.88842C5.97078 6.40191 5.56232 6.80891 5.04591 7.10942C4.53242 7.40993 3.97079 7.56018 3.36102 7.56018C2.75125 7.56018 2.18817 7.40993 1.67176 7.10942C1.15827 6.80891 0.75127 6.40191 0.450762 5.88842C0.150254 5.37201 0 4.80893 0 4.19916C0 3.58939 0.150254 3.02776 0.450762 2.51427C0.75127 1.99786 1.15827 1.58941 1.67176 1.2889C2.18817 0.988389 2.75125 0.838135 3.36102 0.838135C3.97079 0.838135 4.53242 0.988389 5.04591 1.2889C5.56232 1.58941 5.97078 1.99786 6.27128 2.51427Z" fill="#B1FFC2"/>
</svg>
