<svg width="26" height="26" viewBox="0 0 26 26" fill="none" xmlns="http://www.w3.org/2000/svg">
<path d="M13.8125 13C13.8125 13.2708 13.694 13.4909 13.457 13.6602L8.58203 16.9102C8.14193 17.1471 7.76953 17.0794 7.46484 16.707C7.22786 16.2669 7.29557 15.8945 7.66797 15.5898L12.1875 12.543V5.6875C12.2214 5.17969 12.4922 4.90885 13 4.875C13.5078 4.90885 13.7786 5.17969 13.8125 5.6875V13ZM26 13C25.9661 15.4375 25.3737 17.6211 24.2227 19.5508C23.0716 21.5143 21.5143 23.0716 19.5508 24.2227C17.6211 25.3737 15.4375 25.9661 13 26C10.5625 25.9661 8.37891 25.3737 6.44922 24.2227C4.48568 23.0716 2.92839 21.5143 1.77734 19.5508C0.626302 17.6211 0.0338542 15.4375 0 13C0.0338542 10.5625 0.626302 8.37891 1.77734 6.44922C2.92839 4.48568 4.48568 2.92839 6.44922 1.77734C8.37891 0.626302 10.5625 0.0338542 13 0C15.4375 0.0338542 17.6211 0.626302 19.5508 1.77734C21.5143 2.92839 23.0716 4.48568 24.2227 6.44922C25.3737 8.37891 25.9661 10.5625 26 13ZM13 1.625C10.8672 1.65885 8.95443 2.18359 7.26172 3.19922C5.53516 4.18099 4.18099 5.53516 3.19922 7.26172C2.18359 8.95443 1.65885 10.8672 1.625 13C1.65885 15.1328 2.18359 17.0456 3.19922 18.7383C4.18099 20.4648 5.53516 21.819 7.26172 22.8008C8.95443 23.8164 10.8672 24.3411 13 24.375C15.1328 24.3411 17.0456 23.8164 18.7383 22.8008C20.4648 21.819 21.819 20.4648 22.8008 18.7383C23.8164 17.0456 24.3411 15.1328 24.375 13C24.3411 10.8672 23.8164 8.95443 22.8008 7.26172C21.819 5.53516 20.4648 4.18099 18.7383 3.19922C17.0456 2.18359 15.1328 1.65885 13 1.625Z" fill="white"/>
</svg>
