<svg width="17" height="14" viewBox="0 0 17 14" fill="none" xmlns="http://www.w3.org/2000/svg">
<path d="M16.2723 2.31008C15.8237 2.96633 15.2813 3.52549 14.6451 3.98754C14.6518 4.08129 14.6551 4.22191 14.6551 4.40941C14.6551 5.27995 14.5279 6.15049 14.2734 7.02102C14.019 7.88486 13.6306 8.71522 13.1083 9.51209C12.5926 10.309 11.9766 11.0154 11.26 11.6315C10.5435 12.2409 9.67969 12.7297 8.66853 13.098C7.65737 13.4596 6.57589 13.6404 5.42411 13.6404C3.60938 13.6404 1.94866 13.155 0.441964 12.184C0.676339 12.2108 0.9375 12.2241 1.22545 12.2241C2.73214 12.2241 4.07478 11.7621 5.25335 10.838C4.55022 10.8246 3.92076 10.6103 3.36496 10.1951C2.80915 9.77325 2.42746 9.23754 2.21987 8.58799C2.44085 8.62147 2.64509 8.63821 2.83259 8.63821C3.12054 8.63821 3.40513 8.60138 3.68638 8.52772C2.93638 8.3737 2.31362 8.00205 1.81808 7.41276C1.32924 6.81678 1.08482 6.12705 1.08482 5.34357V5.30339C1.54018 5.55785 2.02902 5.69513 2.55134 5.71522C2.10938 5.42058 1.75781 5.03553 1.49665 4.56008C1.23549 4.08464 1.10491 3.56901 1.10491 3.01321C1.10491 2.42392 1.25223 1.87816 1.54688 1.37593C2.35714 2.3737 3.34152 3.17392 4.5 3.7766C5.66518 4.37258 6.91071 4.70406 8.23661 4.77102C8.18304 4.51656 8.15625 4.26879 8.15625 4.02772C8.15625 3.1304 8.47098 2.367 9.10045 1.73754C9.73661 1.10138 10.5033 0.783299 11.4007 0.783299C12.3382 0.783299 13.1283 1.12482 13.7712 1.80785C14.5011 1.66723 15.1875 1.40607 15.8304 1.02437C15.5826 1.79446 15.1071 2.39044 14.404 2.81232C15.0268 2.74535 15.6496 2.57794 16.2723 2.31008Z" fill="#BDBDBD"/>
</svg>
